HIERARCHY
ROOT Hips
{
	OFFSET 0 0 0
	CHANNELS 6 Xposition Yposition Zposition Zrotation Yrotation Xrotation
	JOINT LeftThigh
	{
		OFFSET 8.209213 0 -5.776854
		CHANNELS 3 Zrotation Yrotation Xrotation
		JOINT LeftLeg
		{
			OFFSET 0 0 -41.350112
			CHANNELS 3 Zrotation Yrotation Xrotation
			JOINT LeftFoot
			{
				OFFSET 0 0 -38.420225
				CHANNELS 3 Zrotation Yrotation Xrotation
				End Site
				{
					OFFSET 0 -13.011281 -4.889596
				}
			}
		}
	}
	JOINT RightThigh
	{
		OFFSET -8.209213 0 -5.776854
		CHANNELS 3 Zrotation Yrotation Xrotation
		JOINT RightLeg
		{
			OFFSET 0 0 -41.350112
			CHANNELS 3 Zrotation Yrotation Xrotation
			JOINT RightFoot
			{
				OFFSET 0 0 -38.420225
				CHANNELS 3 Zrotation Yrotation Xrotation
				End Site
				{
					OFFSET 0 -13.011281 -4.889596
				}
			}
		}
	}
	JOINT SpineLow
	{
		OFFSET 0 0 4.606742
		CHANNELS 3 Zrotation Yrotation Xrotation
		JOINT SpineMid
		{
			OFFSET 0 0 12.592067
			CHANNELS 3 Zrotation Yrotation Xrotation
			JOINT Chest
			{
				OFFSET 0 0 12.592067
				CHANNELS 3 Zrotation Yrotation Xrotation
				JOINT LeftShoulder
				{
					OFFSET 7.370787 1.382022 9.213483
					CHANNELS 3 Zrotation Yrotation Xrotation
					JOINT LeftArm
					{
						OFFSET 8.937079 0 4.146067
						CHANNELS 3 Zrotation Yrotation Xrotation
						JOINT LeftForearm
						{
							OFFSET 0 0 25.158337
							CHANNELS 3 Zrotation Yrotation Xrotation
							JOINT LeftHand
							{
								OFFSET 0 0 24.597236
								CHANNELS 3 Zrotation Yrotation Xrotation
							}
						}
					}
				}
				JOINT RightShoulder
				{
					OFFSET -7.370787 1.382022 9.213483
					CHANNELS 3 Zrotation Yrotation Xrotation
					JOINT RightArm
					{
						OFFSET -8.937079 0 4.146067
						CHANNELS 3 Zrotation Yrotation Xrotation
						JOINT RightForearm
						{
							OFFSET 0 0 -25.158337
							CHANNELS 3 Zrotation Yrotation Xrotation
							JOINT RightHand
							{
								OFFSET 0 0 -24.597236
								CHANNELS 3 Zrotation Yrotation Xrotation
							}
						}
					}
				}
				JOINT Neck
				{
					OFFSET 0 0 14.741573
					CHANNELS 3 Zrotation Yrotation Xrotation
					JOINT Head
					{
						OFFSET 0 0 11.05618
						CHANNELS 3 Zrotation Yrotation Xrotation
						End Site
						{
							OFFSET 0 0 7.325843
						}
					}
				}
			}
		}
	}
}
MOTION
Frames: 11
Frame Time: 0.01
-17.129499 90.6215384026128 -7.040274 179.088144 29.023326 89.668478 7.943251 -12.718848 -1.081827 -7.846886 1.529436 0.127917 -0.00882 -0.082451 0.851028 -3.758293 11.61302 0.23599 0.726373 1.049771 2.616286 0.963324 0.132839 1.333173 0.177543 0.181779 -0.867495 0.478713 0.503167 -2.369904 0.478713 0.503167 -2.369903 -4.721685 7.073975 18.06867 87.62548 30.721228 147.88042 -18.678048 4.244284 40.925292 75.76037 0.948938 -6.605076 1.295502 -9.995014 12.913011 71.422137 43.850512 -1.231937 -18.836472 4.352403 -29.135643 77.853906 -12.277581 2.067763 0.184706 -0.74795 3.990456 0.143419 -0.559785 2.993025
-17.198429 90.6192533350664 -6.895387 179.101326 29.047961 89.649835 7.916206 -12.740377 -1.085171 -7.737465 1.519053 0.127964 -0.029799 -0.070956 0.865507 -3.577475 11.587823 0.155618 0.618939 1.057508 2.671419 0.952854 0.135874 1.357287 0.169749 0.167319 -0.854163 0.458022 0.463275 -2.333615 0.458022 0.463275 -2.333616 -4.653409 7.099523 17.987492 87.567558 30.888421 147.914679 -18.782318 4.219279 40.875425 75.836561 0.967495 -6.529749 1.410761 -9.976912 12.843985 71.679502 43.87741 -1.093017 -18.906463 4.392786 -29.252171 77.855666 -12.263588 2.128091 0.231779 -0.726048 3.995567 0.178588 -0.543048 2.996911
-17.220856 90.6227692662327 -6.874357 179.105207 29.112464 89.645573 7.839227 -12.740465 -1.069056 -7.642278 1.528848 0.139769 -0.021095 -0.071855 0.866208 -3.489709 11.585681 0.154363 0.596511 1.064601 2.645152 0.952745 0.144184 1.358766 0.177575 0.163021 -0.849069 0.479599 0.451768 -2.319667 0.479599 0.451768 -2.319666 -4.690641 7.084048 17.943445 87.406577 30.941408 147.88153 -18.848996 4.163081 40.884434 75.841201 0.970316 -6.533916 1.416826 -10.003661 12.81542 71.749614 43.957328 -1.021636 -18.94728 4.406504 -29.385949 77.878389 -12.270722 2.134395 0.243641 -0.73371 4.014573 0.187558 -0.54871 3.011182
-17.272545 90.6206963814136 -6.758324 179.110579 29.144431 89.620646 7.832039 -12.74845 -1.077053 -7.589301 1.514942 0.168746 -0.038401 -0.063774 0.876176 -3.248512 11.548803 0.101233 0.418496 1.10733 2.716509 0.944998 0.143255 1.365735 0.185167 0.150841 -0.84453 0.500804 0.418715 -2.307296 0.500804 0.418715 -2.307296 -4.719411 7.12689 17.914629 87.289266 31.076271 147.889912 -18.948065 4.157749 40.817563 75.865019 1.008521 -6.550673 1.443765 -9.99052 12.797534 71.880893 43.965976 -0.905511 -19.008445 4.408155 -29.56209 77.855869 -12.245411 2.175115 0.22139 -0.71849 4.059807 0.170822 -0.537425 3.045076
-17.292252 90.6243727133448 -6.728971 179.113475 29.190674 89.616075 7.77384 -12.743995 -1.077762 -7.517873 1.523088 0.197038 -0.035326 -0.064406 0.875978 -3.115386 11.536841 0.108651 0.344056 1.127956 2.694021 0.940945 0.15139 1.366847 0.191574 0.146294 -0.846313 0.518461 0.406524 -2.312163 0.518461 0.406524 -2.312163 -4.757371 7.129104 17.90803 87.136455 31.130953 147.849199 -19.032253 4.130452 40.808359 75.852968 1.026985 -6.568937 1.441706 -10.016863 12.804775 71.899687 44.032935 -0.869326 -19.060819 4.412227 -29.679201 77.881013 -12.246499 2.17149 0.227788 -0.727916 4.103368 0.175736 -0.544437 3.077757
-17.327169 90.6236837740703 -6.6312 179.112084 29.203349 89.591289 7.727214 -12.737736 -1.073649 -7.47927 1.506087 0.228026 -0.024152 -0.060486 0.876531 -2.896285 11.508658 0.093876 0.172545 1.165365 2.71685 0.945091 0.159728 1.375072 0.197683 0.135168 -0.851784 0.535514 0.376374 -2.327167 0.535514 0.376374 -2.327168 -4.749118 7.181322 17.919473 86.958824 31.213694 147.844831 -19.18048 4.135959 40.708685 75.857599 1.067506 -6.577283 1.471854 -10.015507 12.832047 71.963118 44.017875 -0.784867 -19.041298 4.391302 -29.892338 77.881386 -12.235656 2.2369 0.191173 -0.711531 4.185671 0.14826 -0.532369 3.139436
-17.348503 90.6279158693242 -6.59784 179.116611 29.238316 89.575677 7.698359 -12.735559 -1.066271 -7.430306 1.515991 0.254 -0.030011 -0.062514 0.875953 -2.730467 11.494093 0.121551 0.056822 1.189153 2.691966 0.943508 0.165908 1.38076 0.202354 0.130837 -0.851837 0.548433 0.364702 -2.327318 0.548433 0.364702 -2.327318 -4.784044 7.196197 17.913083 86.847549 31.277267 147.811435 -19.258193 4.119523 40.676575 75.817587 1.086933 -6.597645 1.46812 -10.042002 12.839298 71.950238 44.08074 -0.780703 -19.042755 4.395702 -29.983903 77.928095 -12.246356 2.244777 0.196507 -0.723886 4.228413 0.152396 -0.541586 3.1715
-17.392635 90.628284611831 -6.530252 179.110528 29.209312 89.529102 7.602904 -12.719475 -1.019215 -7.317694 1.487552 0.257841 -0.05798 -0.055505 0.88771 -2.612358 11.497044 0.158852 -0.04367 1.200439 2.66173 0.910942 0.173745 1.411551 0.180829 0.125743 -0.837503 0.48986 0.349917 -2.288297 0.48986 0.349917 -2.288297 -4.638741 7.201702 17.824556 86.718818 31.371857 147.828282 -19.344783 4.136162 40.584363 75.80207 1.135958 -6.620966 1.630207 -10.065169 12.762138 72.087492 44.066792 -0.706676 -19.029738 4.399263 -30.113134 77.912449 -12.275672 2.33346 0.219985 -0.729148 4.249657 0.170066 -0.545362 3.187462
-17.41647 90.6341541959056 -6.501394 179.11914 29.22491 89.511116 7.596864 -12.715126 -1.003267 -7.312389 1.490648 0.269522 -0.063931 -0.055593 0.887895 -2.467719 11.485675 0.195718 -0.143779 1.217926 2.63469 0.902462 0.183188 1.41575 0.182926 0.121064 -0.832689 0.495778 0.337166 -2.275158 0.495778 0.337166 -2.275158 -4.682106 7.209272 17.806363 86.683764 31.466256 147.828652 -19.396698 4.147357 40.543638 75.750367 1.153928 -6.66679 1.630575 -10.09583 12.733256 72.103416 44.119417 -0.683649 -19.004697 4.410555 -30.169086 77.958693 -12.303789 2.348326 0.222914 -0.739572 4.270078 0.172361 -0.553154 3.202784
-17.448975 90.6362853220681 -6.477888 179.120144 29.198355 89.480073 7.520669 -12.695503 -0.967548 -7.221135 1.450323 0.267379 -0.100514 -0.038925 0.898613 -2.443228 11.499392 0.244581 -0.159384 1.214355 2.579529 0.884059 0.198021 1.428348 0.186551 0.108955 -0.834644 0.506093 0.304212 -2.280573 0.506094 0.304212 -2.280573 -4.705255 7.276928 17.832511 86.672192 31.616543 147.868992 -19.436473 4.197619 40.463703 75.753333 1.188498 -6.660439 1.612696 -10.079569 12.760785 72.301338 44.1076 -0.573929 -19.053876 4.438296 -30.206036 77.966117 -12.315035 2.406913 0.184228 -0.72014 4.328054 0.143278 -0.538832 3.246215
-17.464315 90.6421138892171 -6.462706 179.127706 29.240929 89.475589 7.566569 -12.689352 -0.966054 -7.259062 1.455021 0.269005 -0.093658 -0.037329 0.899653 -2.320848 11.485797 0.265045 -0.225308 1.234042 2.55228 0.879605 0.207956 1.433545 0.190166 0.103853 -0.837327 0.516136 0.290413 -2.28793 0.516136 0.290413 -2.28793 -4.717157 7.288306 17.853304 86.676556 31.723712 147.883723 -19.468511 4.222129 40.415334 75.715742 1.20872 -6.6985 1.625581 -10.106941 12.785371 72.337169 44.168106 -0.547566 -19.048714 4.448203 -30.238016 78.011149 -12.344762 2.420808 0.19841 -0.719775 4.360045 0.15395 -0.538449 3.270225
